<?xml version="1.0" encoding="UTF-8"?>
<svg version="1.1" xmlns="http://www.w3.org/2000/svg" width="50" height="50">
<path d="M0 0 C2.578125 -0.061875 5.15625 -0.12375 7.8125 -0.1875 C9.02450073 -0.22846802 9.02450073 -0.22846802 10.26098633 -0.27026367 C15.50719105 -0.33147268 15.50719105 -0.33147268 17.96875 1.32421875 C21.09357912 6.40206606 20.76446516 15.28471286 20 21 C18.11188639 23.51008045 17.05025491 23.98324836 14 25 C11.98093192 25.09416778 9.95875687 25.12991192 7.9375 25.125 C6.87402344 25.12757812 5.81054688 25.13015625 4.71484375 25.1328125 C2 25 2 25 0 24 C0 16.08 0 8.16 0 0 Z M7 6 C7 9.96 7 13.92 7 18 C8.98 18 10.96 18 13 18 C13 17.01 13 16.02 13 15 C11.68 14.67 10.36 14.34 9 14 C9 12.68 9 11.36 9 10 C10.32 9.34 11.64 8.68 13 8 C12.67 7.34 12.34 6.68 12 6 C10.35 6 8.7 6 7 6 Z " fill="#1D1D1D" transform="translate(27,12)"/>
<path d="M0 0 C0.495 0.33 0.99 0.66 1.5 1 C1.17 2.65 0.84 4.3 0.5 6 C-2.22504204 6.94328378 -3.66342922 6.96998239 -6.5625 6.4375 C-9.68251805 5.63690947 -9.68251805 5.63690947 -12.5 8 C-13 11.5 -13 11.5 -12.5 15 C-9.12343101 17.251046 -8.70287392 17.1451382 -4.9375 16.5 C-2.55859375 16.09375 -2.55859375 16.09375 -0.5 16 C0.16 16.66 0.82 17.32 1.5 18 C1.32789342 20.66765203 0.69577941 21.78916063 -1.125 23.75 C-4.61179967 25.58515772 -6.58252387 25.57798828 -10.5 25 C-15.2841109 22.57657333 -19.50963672 20.16473754 -21.5 15 C-21.99587546 11.1982881 -21.6635236 9.32704721 -19.9375 5.875 C-14.6229291 -0.39346824 -8.07324943 -3.22929977 0 0 Z " fill="#222223" transform="translate(23.5,13)"/>
<path d="M0 0 C2 1 2 1 2 1 Z " fill="#7FFFFF" transform="translate(20,41)"/>
<path d="" fill="#FFFFFF" transform="translate(0,0)"/>
<path d="" fill="#FEFFFF" transform="translate(0,0)"/>
<path d="" fill="#FFFFFF" transform="translate(0,0)"/>
<path d="" fill="#FFFFFF" transform="translate(0,0)"/>
<path d="" fill="#FFFFFF" transform="translate(0,0)"/>
<path d="" fill="#FF00FF" transform="translate(0,0)"/>
<path d="" fill="#FFFFFE" transform="translate(0,0)"/>
<path d="" fill="#FFFFFF" transform="translate(0,0)"/>
<path d="" fill="#FFFFFF" transform="translate(0,0)"/>
<path d="" fill="#FFFFFF" transform="translate(0,0)"/>
<path d="" fill="#FFFFFF" transform="translate(0,0)"/>
<path d="" fill="#FFFFFF" transform="translate(0,0)"/>
<path d="" fill="#FFFFFF" transform="translate(0,0)"/>
<path d="" fill="#FFFFFF" transform="translate(0,0)"/>
<path d="" fill="#FFFFFF" transform="translate(0,0)"/>
<path d="" fill="#FFFFFF" transform="translate(0,0)"/>
<path d="" fill="#FEFFFF" transform="translate(0,0)"/>
<path d="" fill="#FFFFFF" transform="translate(0,0)"/>
<path d="" fill="#FFFFFF" transform="translate(0,0)"/>
<path d="" fill="#FFFFFF" transform="translate(0,0)"/>
<path d="" fill="#FFFFFF" transform="translate(0,0)"/>
<path d="" fill="#00FFFF" transform="translate(0,0)"/>
<path d="" fill="#FFFFFF" transform="translate(0,0)"/>
<path d="" fill="#FFFFFF" transform="translate(0,0)"/>
<path d="" fill="#FFFFFF" transform="translate(0,0)"/>
<path d="" fill="#FFFFFF" transform="translate(0,0)"/>
<path d="" fill="#FFFFFF" transform="translate(0,0)"/>
<path d="" fill="#FFFFFF" transform="translate(0,0)"/>
<path d="" fill="#FFFFFF" transform="translate(0,0)"/>
<path d="" fill="#FFFFFF" transform="translate(0,0)"/>
<path d="" fill="#FFFFFF" transform="translate(0,0)"/>
<path d="" fill="#FFFFFF" transform="translate(0,0)"/>
<path d="" fill="#FFFFFF" transform="translate(0,0)"/>
<path d="" fill="#FFFFFF" transform="translate(0,0)"/>
<path d="" fill="#FF00FF" transform="translate(0,0)"/>
<path d="" fill="#FFFFFF" transform="translate(0,0)"/>
<path d="" fill="#FFFFFE" transform="translate(0,0)"/>
<path d="" fill="#FFFFFF" transform="translate(0,0)"/>
<path d="" fill="#FFFFFF" transform="translate(0,0)"/>
<path d="" fill="#FFFFFF" transform="translate(0,0)"/>
<path d="" fill="#FFFFFF" transform="translate(0,0)"/>
<path d="" fill="#FFFFFF" transform="translate(0,0)"/>
<path d="" fill="#FFFFFF" transform="translate(0,0)"/>
<path d="" fill="#FFFFFF" transform="translate(0,0)"/>
</svg>
